<svg width="50" height="50" viewBox="0 0 50 50" fill="none" xmlns="http://www.w3.org/2000/svg">
<rect x="0.5" y="0.5" width="49" height="49" rx="24.5" fill="white" stroke="#008CAF"/>
<path fill-rule="evenodd" clip-rule="evenodd" d="M21.3769 37.9032C20.5959 38.6842 19.3295 38.6842 18.5485 37.9032C17.7674 37.1221 17.7674 35.8558 18.5485 35.0747L26.3747 27.2485C27.1534 26.4698 27.5427 26.0805 27.6921 25.6329C27.8291 25.2221 27.8291 24.7778 27.6921 24.367C27.5427 23.9194 27.1534 23.53 26.3747 22.7513L18.5485 14.9251C17.7674 14.1441 17.7674 12.8778 18.5485 12.0967C19.3295 11.3157 20.5959 11.3157 21.3769 12.0967L32.0315 22.7513C32.8102 23.53 33.1996 23.9194 33.3489 24.367C33.486 24.7778 33.486 25.2221 33.3489 25.6329C33.1996 26.0805 32.8102 26.4698 32.0315 27.2485L21.3769 37.9032Z" fill="#008CAF"/>
</svg>
