<svg width="50" height="50" viewBox="0 0 50 50" fill="none" xmlns="http://www.w3.org/2000/svg">
<rect x="49.5" y="49.5" width="49" height="49" rx="24.5" transform="rotate(-180 49.5 49.5)" fill="white" stroke="#008CAF"/>
<path fill-rule="evenodd" clip-rule="evenodd" d="M28.6231 12.0968C29.4041 11.3158 30.6705 11.3158 31.4515 12.0968C32.2326 12.8779 32.2326 14.1442 31.4515 14.9253L23.6253 22.7515C22.8466 23.5302 22.4573 23.9195 22.3079 24.3671C22.1709 24.7779 22.1709 25.2222 22.3079 25.633C22.4573 26.0806 22.8466 26.47 23.6253 27.2487L31.4515 35.0749C32.2326 35.8559 32.2326 37.1222 31.4515 37.9033C30.6705 38.6843 29.4041 38.6843 28.6231 37.9033L17.9685 27.2487C17.1898 26.47 16.8004 26.0806 16.6511 25.633C16.514 25.2222 16.514 24.7779 16.6511 24.3671C16.8004 23.9195 17.1898 23.5302 17.9685 22.7515L28.6231 12.0968Z" fill="#008CAF"/>
</svg>
